<?xml version="1.0" standalone="no"?><!DOCTYPE svg PUBLIC "-//W3C//DTD SVG 1.1//EN" "http://www.w3.org/Graphics/SVG/1.1/DTD/svg11.dtd"><svg t="1692516560435" class="icon" viewBox="0 0 1024 1024" version="1.1" xmlns="http://www.w3.org/2000/svg" p-id="5421" xmlns:xlink="http://www.w3.org/1999/xlink" width="200" height="200"><path d="M512 0a512 512 0 1 0 0 1024A512 512 0 0 0 512 0zM128 512a384 384 0 0 1 73.6-224.64c2.56 4.992 5.504 9.664 8.96 14.08l512 512c4.416 3.456 9.088 6.4 14.08 8.96A384 384 0 0 1 128 512z m694.4 224.64a86.4 86.4 0 0 0-8.96-14.08l-512-512a86.4 86.4 0 0 0-14.08-8.96 384 384 0 0 1 535.04 535.04z" fill="#000000" p-id="5422"></path></svg>