<?xml version="1.0" standalone="no"?><!DOCTYPE svg PUBLIC "-//W3C//DTD SVG 1.1//EN" "http://www.w3.org/Graphics/SVG/1.1/DTD/svg11.dtd"><svg t="1692516552793" class="icon" viewBox="0 0 1024 1024" version="1.1" xmlns="http://www.w3.org/2000/svg" p-id="5261" xmlns:xlink="http://www.w3.org/1999/xlink" width="200" height="200"><path d="M594.56 722.56a64.256 64.256 0 1 1 90.88 90.88l-128 128a64 64 0 0 1-90.88 0l-128-128a64.256 64.256 0 1 1 90.88-90.88l18.56 19.2V512h128v229.76l18.56-19.2zM908.8 467.2a220.16 220.16 0 0 1 108.16 191.36 169.6 169.6 0 0 1-46.08 120.32A183.04 183.04 0 0 1 832 832a64 64 0 1 1 0-128c16.64 1.28 33.28-3.52 46.72-13.44a44.8 44.8 0 0 0 10.24-32c0-40.32-29.44-82.56-56.96-82.56a64 64 0 0 1-56.96-92.8 110.72 110.72 0 0 0-49.92-121.6 73.6 73.6 0 0 0-103.68 3.84 64 64 0 0 1-69.76 13.44A64 64 0 0 1 512 320a81.28 81.28 0 0 0-55.68-81.92 186.88 186.88 0 0 0-188.16 33.92 128 128 0 0 0-16.64 152.32A64 64 0 0 1 192 512c-21.76 0-56.96 55.68-56.96 119.04-1.28 19.84 3.84 39.68 14.72 56.32A47.36 47.36 0 0 0 192 704a64 64 0 0 1 0 128 173.44 173.44 0 0 1-144-64 218.24 218.24 0 0 1-40.96-136.96 271.36 271.36 0 0 1 106.88-223.36 242.56 242.56 0 0 1 64-227.2 320 320 0 0 1 328.32-60.8 216.32 216.32 0 0 1 112 99.84A206.08 206.08 0 0 1 800 256a256 256 0 0 1 108.8 211.2z" fill="#000000" p-id="5262"></path></svg>