<?xml version="1.0" standalone="no"?><!DOCTYPE svg PUBLIC "-//W3C//DTD SVG 1.1//EN" "http://www.w3.org/Graphics/SVG/1.1/DTD/svg11.dtd"><svg t="1692516538212" class="icon" viewBox="0 0 1024 1024" version="1.1" xmlns="http://www.w3.org/2000/svg" p-id="4271" xmlns:xlink="http://www.w3.org/1999/xlink" width="200" height="200"><path d="M240.96 537.28a60.224 60.224 0 0 1 18.048-42.752l425.28-416.832a60.224 60.224 0 0 1 84.928 0l177.088 177.088a60.224 60.224 0 0 1 0 84.928l-416.832 425.28a60.224 60.224 0 0 1-42.752 18.048h-185.6a60.224 60.224 0 0 1-60.16-60.16v-185.6zM726.4 205.44l-33.152 35.584 92.8 89.728 32.512-33.152-92.16-92.16zM361.408 562.624v99.968H461.44l240.384-246.4-94.592-94.528-245.76 240.96z m481.92 340.928v-240.96h120.448v301.184c0 33.28-27.008 60.224-60.224 60.224H60.16A60.224 60.224 0 0 1 0 963.776V120.448c0-33.28 26.944-60.16 60.224-60.16h301.184v120.448H120.448v722.816h722.816z" fill="#000000" p-id="4272"></path></svg>