<?xml version="1.0" standalone="no"?><!DOCTYPE svg PUBLIC "-//W3C//DTD SVG 1.1//EN" "http://www.w3.org/Graphics/SVG/1.1/DTD/svg11.dtd"><svg t="1692516579911" class="icon" viewBox="0 0 1024 1024" version="1.1" xmlns="http://www.w3.org/2000/svg" p-id="6049" xmlns:xlink="http://www.w3.org/1999/xlink" width="200" height="200"><path d="M832 448h-64V256a256 256 0 1 0-512 0v192H192a128 128 0 0 0-128 128v384a64 64 0 0 0 64 64h768a64 64 0 0 0 64-64V576a128 128 0 0 0-128-128zM384 256a128 128 0 1 1 256 0v192H384V256z m448 640H192V576h640v320z" fill="#000000" p-id="6050"></path></svg>