<?xml version="1.0" standalone="no"?><!DOCTYPE svg PUBLIC "-//W3C//DTD SVG 1.1//EN" "http://www.w3.org/Graphics/SVG/1.1/DTD/svg11.dtd"><svg t="1692516536167" class="icon" viewBox="0 0 1024 1024" version="1.1" xmlns="http://www.w3.org/2000/svg" p-id="4132" xmlns:xlink="http://www.w3.org/1999/xlink" width="200" height="200"><path d="M256 704a64 64 0 0 1-45.44-18.56l-128-128a64 64 0 0 1 0-90.88l128-128a64.256 64.256 0 1 1 90.88 90.88l-19.2 18.56H768v128H282.24l19.2 18.56A64 64 0 0 1 256 704zM896 0a128 128 0 0 1 128 128v768a128 128 0 0 1-128 128H320a128 128 0 0 1-128-128v-64h128v64h576V128H320v64H192V128a128 128 0 0 1 128-128h576z" fill="#000000" p-id="4133"></path></svg>