<?xml version="1.0" standalone="no"?><!DOCTYPE svg PUBLIC "-//W3C//DTD SVG 1.1//EN" "http://www.w3.org/Graphics/SVG/1.1/DTD/svg11.dtd"><svg t="1692516501841" class="icon" viewBox="0 0 1024 1024" version="1.1" xmlns="http://www.w3.org/2000/svg" p-id="3294" xmlns:xlink="http://www.w3.org/1999/xlink" width="200" height="200"><path d="M825.856 589.696l119.232 120.448a60.224 60.224 0 0 1 0 85.568l-120.448 120.448a60.224 60.224 0 0 1-85.568 0 60.224 60.224 0 0 1 0-85.504l23.488-22.912-220.416 5.44a60.224 60.224 0 0 1-42.816-17.472L378.88 675.2l85.504-85.568 101.824 103.04 186.752-5.44-12.672-12.032a60.48 60.48 0 0 1 85.568-85.568z m-67.52-258.432H627.072l-403.584 404.224a60.224 60.224 0 0 1-42.752 17.472H0V632.448h156.032l403.584-404.16a60.224 60.224 0 0 1 42.752-17.472h155.968l-18.048-17.472a60.48 60.48 0 0 1 85.568-85.504l120.448 120.448a60.224 60.224 0 0 1 0 85.568l-120.448 120.448a60.224 60.224 0 0 1-85.568 0 60.224 60.224 0 0 1 0-85.568l18.048-17.472zM198.144 494.528l-102.4-103.04H0V271.104h120.448c16-0.064 31.424 6.208 42.816 17.472l120.448 120.512-85.568 85.504z" fill="#000000" p-id="3295"></path></svg>