<?xml version="1.0" standalone="no"?><!DOCTYPE svg PUBLIC "-//W3C//DTD SVG 1.1//EN" "http://www.w3.org/Graphics/SVG/1.1/DTD/svg11.dtd"><svg t="1692516504309" class="icon" viewBox="0 0 1024 1024" version="1.1" xmlns="http://www.w3.org/2000/svg" p-id="3433" xmlns:xlink="http://www.w3.org/1999/xlink" width="200" height="200"><path d="M960 55.04a64 64 0 0 1 64 64V320a64 64 0 0 1-64 64h-192a64 64 0 0 1 0-128h29.44A384 384 0 0 0 145.92 401.28a64 64 0 0 1-64 46.72A86.4 86.4 0 0 1 64 448a64 64 0 0 1-44.16-76.8A512 512 0 0 1 896 174.72v-55.68a64 64 0 0 1 64-64z m0 503.04a64 64 0 0 1 49.28 77.44A512 512 0 0 1 128 849.92v55.04a64 64 0 1 1-128 0V704a64 64 0 0 1 64-64h192a64 64 0 0 1 0 128h-30.08a384 384 0 0 0 656-163.2A64 64 0 0 1 960 558.08z" fill="#000000" p-id="3434"></path></svg>